<mxfile host="app.diagrams.net" modified="2024-04-10T23:28:33.106Z" agent="Mozilla/5.0 (Windows NT 10.0; Win64; x64) AppleWebKit/537.36 (KHTML, like Gecko) Chrome/123.0.0.0 Safari/537.36 Edg/123.0.0.0" etag="0gkbnSMqDpSZNUVSNuZE" version="24.2.3" type="device">
  <diagram name="PÃ¡gina-1" id="8QtqC1lpooo2ghN3jVGa">
    <mxGraphModel dx="386" dy="419" grid="1" gridSize="10" guides="1" tooltips="1" connect="1" arrows="1" fold="1" page="1" pageScale="1" pageWidth="1169" pageHeight="827" math="0" shadow="0">
      <root>
        <mxCell id="0" />
        <mxCell id="1" parent="0" />
        <mxCell id="erj7CuovdhjXgvr3vikT-46" value="" style="rounded=0;whiteSpace=wrap;html=1;" vertex="1" parent="1">
          <mxGeometry x="500" y="100" width="170" height="650" as="geometry" />
        </mxCell>
        <mxCell id="erj7CuovdhjXgvr3vikT-1" value="Cliente&lt;div&gt;&lt;br&gt;&lt;/div&gt;" style="shape=umlActor;verticalLabelPosition=bottom;verticalAlign=top;html=1;outlineConnect=0;" vertex="1" parent="1">
          <mxGeometry x="430" y="350" width="30" height="60" as="geometry" />
        </mxCell>
        <mxCell id="erj7CuovdhjXgvr3vikT-2" value="&lt;font style=&quot;font-size: 8px;&quot;&gt;CADASTRAR&lt;/font&gt;" style="ellipse;whiteSpace=wrap;html=1;" vertex="1" parent="1">
          <mxGeometry x="550" y="130" width="70" height="40" as="geometry" />
        </mxCell>
        <mxCell id="erj7CuovdhjXgvr3vikT-3" value="&lt;font style=&quot;font-size: 8px;&quot;&gt;LOGAR&lt;/font&gt;" style="ellipse;whiteSpace=wrap;html=1;" vertex="1" parent="1">
          <mxGeometry x="550" y="180" width="70" height="40" as="geometry" />
        </mxCell>
        <mxCell id="erj7CuovdhjXgvr3vikT-4" value="&lt;font style=&quot;font-size: 8px;&quot;&gt;BUSCAR PRODUTOS&lt;/font&gt;" style="ellipse;whiteSpace=wrap;html=1;" vertex="1" parent="1">
          <mxGeometry x="550" y="230" width="70" height="40" as="geometry" />
        </mxCell>
        <mxCell id="erj7CuovdhjXgvr3vikT-5" value="&lt;font style=&quot;font-size: 8px;&quot;&gt;FAZER PEDIDO&lt;/font&gt;" style="ellipse;whiteSpace=wrap;html=1;" vertex="1" parent="1">
          <mxGeometry x="550" y="280" width="70" height="40" as="geometry" />
        </mxCell>
        <mxCell id="erj7CuovdhjXgvr3vikT-8" value="" style="endArrow=none;html=1;rounded=0;endFill=0;entryX=0;entryY=0.5;entryDx=0;entryDy=0;exitX=1;exitY=0.3333333333333333;exitDx=0;exitDy=0;exitPerimeter=0;" edge="1" parent="1" source="erj7CuovdhjXgvr3vikT-1" target="erj7CuovdhjXgvr3vikT-2">
          <mxGeometry width="50" height="50" relative="1" as="geometry">
            <mxPoint x="470" y="230" as="sourcePoint" />
            <mxPoint x="550" y="180" as="targetPoint" />
          </mxGeometry>
        </mxCell>
        <mxCell id="erj7CuovdhjXgvr3vikT-9" value="" style="endArrow=none;html=1;rounded=0;entryX=0;entryY=0.5;entryDx=0;entryDy=0;endFill=0;exitX=1;exitY=0.3333333333333333;exitDx=0;exitDy=0;exitPerimeter=0;" edge="1" parent="1" source="erj7CuovdhjXgvr3vikT-1" target="erj7CuovdhjXgvr3vikT-3">
          <mxGeometry width="50" height="50" relative="1" as="geometry">
            <mxPoint x="470" y="231" as="sourcePoint" />
            <mxPoint x="550" y="180" as="targetPoint" />
          </mxGeometry>
        </mxCell>
        <mxCell id="erj7CuovdhjXgvr3vikT-10" value="" style="endArrow=none;html=1;rounded=0;entryX=0;entryY=0.5;entryDx=0;entryDy=0;endFill=0;exitX=1;exitY=0.3333333333333333;exitDx=0;exitDy=0;exitPerimeter=0;" edge="1" parent="1" source="erj7CuovdhjXgvr3vikT-1" target="erj7CuovdhjXgvr3vikT-4">
          <mxGeometry width="50" height="50" relative="1" as="geometry">
            <mxPoint x="470" y="230.5" as="sourcePoint" />
            <mxPoint x="550" y="229.5" as="targetPoint" />
          </mxGeometry>
        </mxCell>
        <mxCell id="erj7CuovdhjXgvr3vikT-11" value="" style="endArrow=none;html=1;rounded=0;entryX=0;entryY=0.5;entryDx=0;entryDy=0;endFill=0;exitX=1;exitY=0.3333333333333333;exitDx=0;exitDy=0;exitPerimeter=0;" edge="1" parent="1" source="erj7CuovdhjXgvr3vikT-1" target="erj7CuovdhjXgvr3vikT-5">
          <mxGeometry width="50" height="50" relative="1" as="geometry">
            <mxPoint x="470" y="230" as="sourcePoint" />
            <mxPoint x="550" y="279.5" as="targetPoint" />
          </mxGeometry>
        </mxCell>
        <mxCell id="erj7CuovdhjXgvr3vikT-13" value="AVALIAR PEDIDO" style="ellipse;whiteSpace=wrap;html=1;fontSize=10;" vertex="1" parent="1">
          <mxGeometry x="550" y="510" width="70" height="40" as="geometry" />
        </mxCell>
        <mxCell id="erj7CuovdhjXgvr3vikT-14" value="" style="endArrow=none;html=1;rounded=0;entryX=0;entryY=0.5;entryDx=0;entryDy=0;endFill=0;exitX=1;exitY=0.3333333333333333;exitDx=0;exitDy=0;exitPerimeter=0;" edge="1" parent="1" source="erj7CuovdhjXgvr3vikT-1" target="erj7CuovdhjXgvr3vikT-13">
          <mxGeometry width="50" height="50" relative="1" as="geometry">
            <mxPoint x="470" y="230" as="sourcePoint" />
            <mxPoint x="550" y="300" as="targetPoint" />
          </mxGeometry>
        </mxCell>
        <mxCell id="erj7CuovdhjXgvr3vikT-16" value="&lt;div&gt;&lt;span style=&quot;font-size: 8px;&quot;&gt;ENVIAR PRODUTOS&lt;/span&gt;&lt;br&gt;&lt;/div&gt;" style="ellipse;whiteSpace=wrap;html=1;" vertex="1" parent="1">
          <mxGeometry x="550" y="340" width="70" height="40" as="geometry" />
        </mxCell>
        <mxCell id="erj7CuovdhjXgvr3vikT-17" value="&lt;font style=&quot;font-size: 8px;&quot;&gt;ATUALIZAR STATUS&amp;nbsp;&lt;/font&gt;&lt;span style=&quot;background-color: initial; font-size: 8px;&quot;&gt;DOS PEDIDOS&lt;/span&gt;" style="ellipse;whiteSpace=wrap;html=1;" vertex="1" parent="1">
          <mxGeometry x="550" y="394" width="70" height="40" as="geometry" />
        </mxCell>
        <mxCell id="erj7CuovdhjXgvr3vikT-20" value="" style="endArrow=none;html=1;rounded=0;endFill=0;entryX=0;entryY=0.3333333333333333;entryDx=0;entryDy=0;entryPerimeter=0;exitX=1;exitY=0.5;exitDx=0;exitDy=0;" edge="1" parent="1" target="erj7CuovdhjXgvr3vikT-49" source="erj7CuovdhjXgvr3vikT-16">
          <mxGeometry width="50" height="50" relative="1" as="geometry">
            <mxPoint x="620" y="490" as="sourcePoint" />
            <mxPoint x="700" y="410" as="targetPoint" />
          </mxGeometry>
        </mxCell>
        <mxCell id="erj7CuovdhjXgvr3vikT-41" value="" style="endArrow=none;html=1;rounded=0;endFill=0;entryX=0;entryY=0.3333333333333333;entryDx=0;entryDy=0;entryPerimeter=0;exitX=1;exitY=0.5;exitDx=0;exitDy=0;" edge="1" parent="1" source="erj7CuovdhjXgvr3vikT-17" target="erj7CuovdhjXgvr3vikT-49">
          <mxGeometry width="50" height="50" relative="1" as="geometry">
            <mxPoint x="620" y="470" as="sourcePoint" />
            <mxPoint x="740" y="497.5" as="targetPoint" />
          </mxGeometry>
        </mxCell>
        <mxCell id="erj7CuovdhjXgvr3vikT-49" value="LIVRO FACIL" style="shape=umlActor;verticalLabelPosition=bottom;verticalAlign=top;html=1;outlineConnect=0;" vertex="1" parent="1">
          <mxGeometry x="720" y="350" width="30" height="60" as="geometry" />
        </mxCell>
        <mxCell id="erj7CuovdhjXgvr3vikT-50" value="" style="endArrow=none;html=1;rounded=0;endFill=0;entryX=0;entryY=0.3333333333333333;entryDx=0;entryDy=0;entryPerimeter=0;exitX=1;exitY=0.5;exitDx=0;exitDy=0;" edge="1" parent="1" source="erj7CuovdhjXgvr3vikT-5" target="erj7CuovdhjXgvr3vikT-49">
          <mxGeometry width="50" height="50" relative="1" as="geometry">
            <mxPoint x="620" y="360" as="sourcePoint" />
            <mxPoint x="740" y="440" as="targetPoint" />
          </mxGeometry>
        </mxCell>
        <mxCell id="erj7CuovdhjXgvr3vikT-51" value="" style="endArrow=none;html=1;rounded=0;entryX=0;entryY=0.5;entryDx=0;entryDy=0;endFill=0;exitX=1;exitY=0.3333333333333333;exitDx=0;exitDy=0;exitPerimeter=0;" edge="1" parent="1" source="erj7CuovdhjXgvr3vikT-1" target="erj7CuovdhjXgvr3vikT-17">
          <mxGeometry width="50" height="50" relative="1" as="geometry">
            <mxPoint x="470" y="230" as="sourcePoint" />
            <mxPoint x="550" y="470" as="targetPoint" />
          </mxGeometry>
        </mxCell>
        <mxCell id="erj7CuovdhjXgvr3vikT-52" value="AVALIAR ESTADO DO PRODUTO" style="ellipse;whiteSpace=wrap;html=1;fontSize=10;" vertex="1" parent="1">
          <mxGeometry x="550" y="450" width="70" height="40" as="geometry" />
        </mxCell>
        <mxCell id="erj7CuovdhjXgvr3vikT-53" value="" style="endArrow=none;html=1;rounded=0;endFill=0;exitX=1;exitY=0.5;exitDx=0;exitDy=0;" edge="1" parent="1" source="erj7CuovdhjXgvr3vikT-52">
          <mxGeometry width="50" height="50" relative="1" as="geometry">
            <mxPoint x="630" y="424" as="sourcePoint" />
            <mxPoint x="720" y="370" as="targetPoint" />
          </mxGeometry>
        </mxCell>
        <mxCell id="erj7CuovdhjXgvr3vikT-54" value="Solicitar reembolso/troca" style="ellipse;whiteSpace=wrap;html=1;fontSize=9;" vertex="1" parent="1">
          <mxGeometry x="550" y="570" width="70" height="40" as="geometry" />
        </mxCell>
        <mxCell id="erj7CuovdhjXgvr3vikT-55" value="" style="endArrow=none;html=1;rounded=0;entryX=0;entryY=0.5;entryDx=0;entryDy=0;endFill=0;exitX=1;exitY=0.3333333333333333;exitDx=0;exitDy=0;exitPerimeter=0;" edge="1" parent="1" source="erj7CuovdhjXgvr3vikT-1" target="erj7CuovdhjXgvr3vikT-54">
          <mxGeometry width="50" height="50" relative="1" as="geometry">
            <mxPoint x="470" y="380" as="sourcePoint" />
            <mxPoint x="560" y="540" as="targetPoint" />
          </mxGeometry>
        </mxCell>
        <mxCell id="erj7CuovdhjXgvr3vikT-57" value="Realizar o reembolso/troca" style="ellipse;whiteSpace=wrap;html=1;fontSize=9;" vertex="1" parent="1">
          <mxGeometry x="550" y="630" width="70" height="40" as="geometry" />
        </mxCell>
        <mxCell id="erj7CuovdhjXgvr3vikT-58" value="" style="endArrow=none;html=1;rounded=0;endFill=0;exitX=1;exitY=0.5;exitDx=0;exitDy=0;entryX=0;entryY=0.3333333333333333;entryDx=0;entryDy=0;entryPerimeter=0;" edge="1" parent="1" source="erj7CuovdhjXgvr3vikT-57" target="erj7CuovdhjXgvr3vikT-49">
          <mxGeometry width="50" height="50" relative="1" as="geometry">
            <mxPoint x="630" y="480" as="sourcePoint" />
            <mxPoint x="730" y="380" as="targetPoint" />
          </mxGeometry>
        </mxCell>
      </root>
    </mxGraphModel>
  </diagram>
</mxfile>
